<?xml version="1.0" standalone="no"?>
<!DOCTYPE svg PUBLIC "-//W3C//DTD SVG 20010904//EN"
 "http://www.w3.org/TR/2001/REC-SVG-20010904/DTD/svg10.dtd">
<svg version="1.0" xmlns="http://www.w3.org/2000/svg"
 width="512.000000pt" height="512.000000pt" viewBox="0 0 512.000000 512.000000"
 preserveAspectRatio="xMidYMid meet">

<g transform="translate(0.000000,512.000000) scale(0.100000,-0.100000)" stroke="none">
<path d="M2320 4920 l0 -200 200 0 200 0 0 -164 0 -165 -57 -6 c-116 -13 -311
-57 -424 -95 -348 -116 -612 -280 -875 -544 -155 -156 -240 -264 -340 -433
l-67 -113 -318 0 -319 0 0 -200 0 -200 241 0 241 0 -6 -22 c-13 -48 -55 -266
-61 -320 l-6 -58 -365 0 -364 0 0 -200 0 -200 364 0 365 0 6 -57 c6 -55 48
-273 61 -320 l6 -23 -241 0 -241 0 0 -200 0 -200 319 0 318 0 67 -112 c93
-158 182 -274 316 -412 192 -198 382 -337 615 -451 741 -362 1598 -283 2277
210 114 83 360 329 449 450 98 132 182 275 243 410 444 996 110 2138 -804
2746 -265 177 -624 307 -942 344 l-58 6 0 165 0 164 200 0 200 0 0 200 0 200
-600 0 -600 0 0 -200z m788 -931 c371 -40 718 -193 999 -438 283 -248 492
-603 571 -971 225 -1045 -505 -2052 -1570 -2169 -333 -37 -665 22 -973 174
-377 185 -655 465 -835 838 -309 640 -213 1389 247 1938 378 451 978 692 1561
628z"/>
<path d="M2742 3589 c-175 -24 -360 -86 -507 -170 -129 -74 -219 -145 -326
-257 -187 -195 -303 -414 -361 -685 -31 -146 -31 -408 0 -554 58 -269 173
-489 357 -681 190 -200 413 -332 669 -397 392 -99 789 -29 1139 202 94 62 299
267 362 363 166 250 239 491 239 790 0 241 -41 420 -141 620 -76 150 -139 236
-268 365 -208 209 -422 326 -703 385 -114 24 -350 34 -460 19z m413 -418 c465
-115 786 -544 762 -1016 -20 -368 -226 -685 -554 -849 -269 -135 -590 -139
-859 -12 -121 57 -204 115 -289 201 -336 335 -390 853 -130 1251 149 229 388
387 662 439 104 20 301 13 408 -14z"/>
<path d="M2720 2400 l0 -400 400 0 400 0 0 200 0 200 -200 0 -200 0 0 200 0
200 -200 0 -200 0 0 -400z"/>
</g>
</svg>
