<?xml version="1.0" standalone="no"?>
<!DOCTYPE svg PUBLIC "-//W3C//DTD SVG 20010904//EN"
 "http://www.w3.org/TR/2001/REC-SVG-20010904/DTD/svg10.dtd">
<svg version="1.0" xmlns="http://www.w3.org/2000/svg"
 width="512.000000pt" height="512.000000pt" viewBox="0 0 512.000000 512.000000"
 preserveAspectRatio="xMidYMid meet">

<g transform="translate(0.000000,512.000000) scale(0.100000,-0.100000)" stroke="none">
<path d="M0 2560 l0 -2560 2560 0 2560 0 0 2560 0 2560 -2560 0 -2560 0 0
-2560z m1608 1608 l-3 -653 -652 -3 -653 -2 0 655 0 655 655 0 655 0 -2 -652z
m1602 -3 l0 -655 -650 0 -650 0 0 655 0 655 650 0 650 0 0 -655z m1610 0 l0
-655 -652 2 -653 3 -3 653 -2 652 655 0 655 0 0 -655z m-3210 -1605 l0 -650
-655 0 -655 0 0 650 0 650 655 0 655 0 0 -650z m1600 0 l0 -650 -650 0 -650 0
0 650 0 650 650 0 650 0 0 -650z m1610 0 l0 -650 -655 0 -655 0 0 650 0 650
655 0 655 0 0 -650z m-3212 -1607 l2 -653 -655 0 -655 0 0 655 0 655 653 -2
652 -3 3 -652z m1602 2 l0 -655 -650 0 -650 0 0 655 0 655 650 0 650 0 0 -655z
m1610 0 l0 -655 -655 0 -655 0 0 648 c0 357 3 652 7 655 3 4 298 7 655 7 l648
0 0 -655z"/>
</g>
</svg>
