<?xml version="1.0" standalone="no"?>
<!DOCTYPE svg PUBLIC "-//W3C//DTD SVG 20010904//EN"
 "http://www.w3.org/TR/2001/REC-SVG-20010904/DTD/svg10.dtd">
<svg version="1.0" xmlns="http://www.w3.org/2000/svg"
 width="512.000000pt" height="512.000000pt" viewBox="0 0 512.000000 512.000000"
 preserveAspectRatio="xMidYMid meet">

<g transform="translate(0.000000,512.000000) scale(0.100000,-0.100000)" stroke="none">
<path d="M0 4365 l0 -755 753 2 752 3 3 753 2 752 -755 0 -755 0 0 -755z"/>
<path d="M1810 4365 l0 -755 750 0 750 0 0 755 0 755 -750 0 -750 0 0 -755z"/>
<path d="M3612 4368 l3 -753 753 -3 752 -2 0 755 0 755 -755 0 -755 0 2 -752z"/>
<path d="M0 2560 l0 -750 755 0 755 0 0 750 0 750 -755 0 -755 0 0 -750z"/>
<path d="M1810 2560 l0 -750 750 0 750 0 0 750 0 750 -750 0 -750 0 0 -750z"/>
<path d="M3610 2560 l0 -750 755 0 755 0 0 750 0 750 -755 0 -755 0 0 -750z"/>
<path d="M0 755 l0 -755 755 0 755 0 -2 752 -3 753 -752 3 -753 2 0 -755z"/>
<path d="M1810 755 l0 -755 750 0 750 0 0 755 0 755 -750 0 -750 0 0 -755z"/>
<path d="M3617 1503 c-4 -3 -7 -343 -7 -755 l0 -748 755 0 755 0 0 755 0 755
-748 0 c-412 0 -752 -3 -755 -7z"/>
</g>
</svg>
