<?xml version="1.0" standalone="no"?>
<!DOCTYPE svg PUBLIC "-//W3C//DTD SVG 20010904//EN"
 "http://www.w3.org/TR/2001/REC-SVG-20010904/DTD/svg10.dtd">
<svg version="1.0" xmlns="http://www.w3.org/2000/svg"
 width="512.000000pt" height="512.000000pt" viewBox="0 0 512.000000 512.000000"
 preserveAspectRatio="xMidYMid meet">

<g transform="translate(0.000000,512.000000) scale(0.100000,-0.100000)" stroke="none">
<path d="M0 4590 l0 -530 530 0 530 0 0 530 0 530 -530 0 -530 0 0 -530z"/>
<path d="M1360 4590 l0 -530 525 0 525 0 0 530 0 530 -525 0 -525 0 0 -530z"/>
<path d="M2710 4590 l0 -530 525 0 525 0 0 530 0 530 -525 0 -525 0 0 -530z"/>
<path d="M4060 4590 l0 -530 530 0 530 0 0 530 0 530 -530 0 -530 0 0 -530z"/>
<path d="M0 3235 l0 -525 530 0 530 0 0 525 0 525 -530 0 -530 0 0 -525z"/>
<path d="M1360 3235 l0 -525 525 0 525 0 0 525 0 525 -525 0 -525 0 0 -525z"/>
<path d="M2710 3235 l0 -525 525 0 525 0 0 525 0 525 -525 0 -525 0 0 -525z"/>
<path d="M4060 3235 l0 -525 530 0 530 0 0 525 0 525 -530 0 -530 0 0 -525z"/>
<path d="M0 1885 l0 -525 530 0 530 0 0 525 0 525 -530 0 -530 0 0 -525z"/>
<path d="M1360 1885 l0 -525 525 0 525 0 0 525 0 525 -525 0 -525 0 0 -525z"/>
<path d="M2710 1885 l0 -525 525 0 525 0 0 525 0 525 -525 0 -525 0 0 -525z"/>
<path d="M4060 1885 l0 -525 530 0 530 0 0 525 0 525 -530 0 -530 0 0 -525z"/>
<path d="M0 530 l0 -530 530 0 530 0 0 530 0 530 -530 0 -530 0 0 -530z"/>
<path d="M1360 530 l0 -530 525 0 525 0 0 530 0 530 -525 0 -525 0 0 -530z"/>
<path d="M2710 530 l0 -530 525 0 525 0 0 530 0 530 -525 0 -525 0 0 -530z"/>
<path d="M4060 530 l0 -530 530 0 530 0 0 530 0 530 -530 0 -530 0 0 -530z"/>
</g>
</svg>
