<?xml version="1.0" standalone="no"?>
<!DOCTYPE svg PUBLIC "-//W3C//DTD SVG 20010904//EN"
 "http://www.w3.org/TR/2001/REC-SVG-20010904/DTD/svg10.dtd">
<svg version="1.0" xmlns="http://www.w3.org/2000/svg"
 width="512.000000pt" height="512.000000pt" viewBox="0 0 512.000000 512.000000"
 preserveAspectRatio="xMidYMid meet">

<g transform="translate(0.000000,512.000000) scale(0.100000,-0.100000)" stroke="none">
<path d="M2335 5108 c-298 -30 -634 -140 -890 -293 -208 -124 -425 -310 -581
-497 -452 -540 -615 -1304 -423 -1983 108 -382 306 -707 607 -997 l112 -108 0
-348 c0 -390 6 -440 72 -565 42 -81 164 -203 245 -245 133 -70 286 -88 427
-52 113 29 190 73 276 160 125 124 180 262 180 449 l0 96 215 0 214 0 37 -75
c52 -104 162 -213 264 -264 179 -87 379 -85 553 6 81 42 203 164 245 245 57
109 72 191 72 404 l0 188 111 108 c196 190 338 377 448 593 427 830 274 1844
-378 2514 -132 135 -228 215 -372 311 -411 275 -933 404 -1434 353z m413 -399
c531 -58 1010 -347 1305 -787 75 -111 178 -320 216 -437 150 -466 110 -971
-110 -1384 -128 -239 -285 -425 -511 -604 l-87 -68 -3 -287 c-3 -282 -3 -288
-27 -325 -13 -21 -42 -50 -64 -65 -34 -23 -52 -27 -107 -27 -55 0 -73 4 -107
27 -22 15 -51 44 -64 65 -22 35 -24 49 -27 211 -3 130 -7 172 -16 172 -7 0
-79 -13 -159 -30 -328 -66 -540 -65 -876 4 -68 14 -130 26 -137 26 -10 0 -14
-66 -16 -332 -3 -331 -3 -333 -27 -371 -13 -21 -42 -50 -64 -65 -34 -23 -52
-27 -107 -27 -55 0 -73 4 -107 27 -22 15 -51 44 -64 65 l-24 38 -3 447 -3 447
-86 67 c-119 93 -202 172 -291 278 -266 318 -400 662 -419 1076 -19 444 132
883 424 1231 378 451 978 692 1561 628z"/>
<path d="M2382 4309 c-175 -24 -360 -86 -507 -170 -129 -74 -219 -145 -326
-257 -187 -195 -303 -414 -361 -685 -31 -146 -31 -408 0 -554 58 -269 173
-489 357 -681 190 -200 413 -332 669 -397 392 -99 789 -29 1139 202 94 62 299
267 362 363 166 250 239 491 239 790 0 241 -41 420 -141 620 -76 150 -139 236
-268 365 -208 209 -422 326 -703 385 -114 24 -350 34 -460 19z m413 -418 c465
-115 786 -544 762 -1016 -20 -368 -226 -685 -554 -849 -269 -135 -590 -139
-859 -12 -121 57 -204 115 -289 201 -336 335 -390 853 -130 1251 149 229 388
387 662 439 104 20 301 13 408 -14z"/>
<path d="M2360 3120 l0 -400 400 0 400 0 0 200 0 200 -200 0 -200 0 0 200 0
200 -200 0 -200 0 0 -400z"/>
</g>
</svg>
