<?xml version="1.0" standalone="no"?>
<svg version="1.0" xmlns="http://www.w3.org/2000/svg"
 width="512.000000pt" height="512.000000pt" viewBox="0 0 512.000000 512.000000"
 preserveAspectRatio="xMidYMid meet">

<g transform="translate(0.000000,512.000000) scale(0.100000,-0.100000)"
stroke="none">
<path d="M2278 4093 l-487 -488 490 -468 489 -468 0 416 0 415 28 -6 c150 -33
306 -93 416 -160 270 -164 464 -405 560 -695 151 -454 31 -962 -308 -1303
-175 -176 -396 -296 -638 -346 l-58 -11 0 -211 0 -211 57 7 c82 10 245 52 343
91 230 88 414 208 590 385 140 140 233 265 314 420 106 205 165 412 186 652
14 155 1 327 -36 498 -148 668 -700 1190 -1376 1303 l-73 13 -5 327 -5 327
-487 -487z"/>
<path d="M1178 3233 c-95 -134 -177 -286 -234 -435 -37 -94 -84 -275 -84 -320
l0 -28 210 0 209 0 11 43 c38 151 124 343 190 427 16 21 30 41 30 45 0 7 -280
308 -291 313 -4 2 -22 -19 -41 -45z"/>
<path d="M860 2006 c0 -85 72 -318 146 -475 52 -111 166 -293 199 -321 14 -12
34 4 163 133 l147 147 -19 33 c-107 181 -167 331 -191 470 l-6 37 -219 0 -220
0 0 -24z"/>
<path d="M1660 1033 l-144 -156 29 -24 c37 -30 172 -112 243 -147 145 -73 377
-147 505 -162 l57 -7 0 221 0 221 -37 6 c-119 19 -300 90 -434 171 -31 19 -61
34 -65 33 -5 0 -74 -71 -154 -156z"/>
</g>
</svg>
