<?xml version="1.0" standalone="no"?>
<svg version="1.0" xmlns="http://www.w3.org/2000/svg"
 width="512.000000pt" height="512.000000pt" viewBox="0 0 512.000000 512.000000"
 preserveAspectRatio="xMidYMid meet">

<g transform="translate(0.000000,512.000000) scale(0.100000,-0.100000)"
stroke="none">
<path d="M2348 4256 l-3 -329 -115 -23 c-527 -106 -982 -464 -1215 -957 -111
-235 -157 -443 -157 -707 0 -264 46 -472 157 -707 229 -484 674 -841 1188
-952 53 -12 108 -21 122 -21 l25 0 0 210 0 210 -27 6 c-269 59 -485 176 -673
364 -146 146 -240 298 -305 493 -84 254 -84 540 0 794 63 190 157 344 294 483
192 195 409 314 684 374 l27 6 0 -415 0 -416 463 442 c254 243 474 454 489
468 l28 26 -490 490 -490 490 -2 -329z"/>
<path d="M3770 3135 l-144 -144 23 -38 c70 -117 144 -289 169 -393 l27 -110
209 0 209 0 -7 58 c-17 143 -92 369 -177 532 -53 101 -138 231 -154 237 -6 2
-75 -62 -155 -142z"/>
<path d="M3815 1993 c-19 -121 -96 -310 -191 -470 l-19 -33 145 -145 c80 -80
149 -144 155 -142 14 5 109 149 163 246 89 164 172 422 172 539 l0 42 -210 0
-209 0 -6 -37z"/>
<path d="M3255 1164 c-136 -86 -312 -156 -447 -179 l-38 -6 0 -209 0 -210 28
0 c91 1 364 85 517 159 102 50 285 164 285 178 0 12 -284 293 -295 293 -6 0
-28 -12 -50 -26z"/>
</g>
</svg>
