<?xml version="1.0" standalone="no"?>
<svg version="1.0" xmlns="http://www.w3.org/2000/svg"
 width="512.000000pt" height="512.000000pt" viewBox="0 0 512.000000 512.000000"
 preserveAspectRatio="xMidYMid meet">

<g transform="translate(0.000000,512.000000) scale(0.100000,-0.100000)"
stroke="none">
<path d="M3732 4944 c-122 -32 -156 -58 -380 -279 l-213 -210 501 -500 500
-500 200 200 c111 110 214 221 230 246 98 150 98 366 2 516 -17 27 -125 141
-239 254 -177 176 -218 211 -273 237 -113 52 -223 65 -328 36z"/>
<path d="M1734 3048 c-1086 -1089 -1173 -1178 -1201 -1238 -49 -104 -53 -141
-53 -531 0 -338 1 -362 20 -398 11 -22 36 -50 57 -62 l38 -24 380 0 c415 0
440 3 545 62 28 16 477 456 1218 1197 l1172 1171 -497 497 c-274 274 -500 498
-503 498 -3 0 -532 -528 -1176 -1172z"/>
<path d="M560 452 c-51 -25 -80 -74 -80 -136 0 -70 26 -115 81 -144 l44 -22
1972 2 1972 3 27 21 c73 54 93 136 52 214 -45 88 162 80 -2063 80 -1856 0
-1972 -1 -2005 -18z"/>
</g>
</svg>
